<svg width="169" height="231" viewBox="0 0 169 231" fill="none" xmlns="http://www.w3.org/2000/svg">
<g clip-path="url(#clip0_1535_346)">
<path fill-rule="evenodd" clip-rule="evenodd" d="M168.833 132.722H87.4162L80.5552 171.601H112.802C105.788 182.731 94.1247 188.297 77.8108 188.297C66.8332 188.297 58.4475 184.256 52.6538 176.175C46.8601 167.79 44.9542 158.108 46.9363 147.131C49.0708 135.391 54.2547 126.09 62.4879 119.229C70.8736 111.911 80.5552 108.251 91.5328 108.251C97.4545 108.251 102.679 109.195 107.207 111.082L110.91 89.9555H110.917L115.228 65.3616C109.244 64.0714 102.87 63.4263 96.1068 63.4263C72.1695 63.4263 51.4341 71.0496 33.9004 86.2963C16.0618 101.543 5.23665 121.059 1.42498 144.844C-2.69162 169.391 2.11108 189.897 15.8331 206.364C29.86 222.678 49.2995 230.835 74.1516 230.835C98.5463 230.835 118.901 223.593 135.215 209.108C151.681 194.319 161.82 175.184 165.632 151.705L168.833 132.722Z" fill="#B7C7FF"/>
<path fill-rule="evenodd" clip-rule="evenodd" d="M28.3498 0H127.834L156.803 9.80552e-06H169.001L161.225 44.3678H149.028H123.718H111.521L66.3141 44.3678L62.6549 65.1795H115.256L107.48 109.547H54.8791L45.9598 160.09H0.219727L28.3498 0Z" fill="white"/>
</g>
<defs>
<clipPath id="clip0_1535_346">
<rect width="169.001" height="230.835" fill="white"/>
</clipPath>
</defs>
</svg>
